{
  "asset": {
    "generator": "Khronos glTF Blender I/O v1.6.16",
    "version": "2.0"
  },
  "extensionsUsed": [
    "KHR_texture_transform"
  ],
  "extensionsRequired": [
    "KHR_texture_transform"
  ],
  "scene": 0,
  "scenes": [
    {
      "name": "Scene",
      "nodes": [
        0
      ]
    }
  ],
  "nodes": [
    {
      "mesh": 0,
      "name": "sphere_gltf"
    }
  ],
  "materials": [
    {
      "doubleSided": true,
      "name": "coral_fort_wall_01",
      "normalTexture": {
        "extensions": {
          "KHR_texture_transform": {
            "offset": [
              1,
              -1
            ]
          }
        },
        "index": 0
      },
      "pbrMetallicRoughness": {
        "baseColorTexture": {
          "extensions": {
            "KHR_texture_transform": {
              "offset": [
                1,
                -1
              ]
            }
          },
          "index": 1
        },
        "metallicFactor": 0,
        "metallicRoughnessTexture": {
          "extensions": {
            "KHR_texture_transform": {
              "offset": [
                1,
                -1
              ]
            }
          },
          "index": 2
        }
      }
    }
  ],
  "meshes": [
    {
      "name": "Sphere.001",
      "primitives": [
        {
          "attributes": {
            "POSITION": 0,
            "NORMAL": 1,
            "TEXCOORD_0": 2
          },
          "indices": 3,
          "material": 0
        }
      ]
    }
  ],
  "textures": [
    {
      "sampler": 0,
      "source": 0
    },
    {
      "sampler": 0,
      "source": 1
    },
    {
      "sampler": 0,
      "source": 2
    }
  ],
  "images": [
    {
      "mimeType": "image/jpeg",
      "name": "coral_fort_wall_01_nor_gl_16k",
      "uri": "textures/coral_fort_wall_01_nor_gl_1k.jpg"
    },
    {
      "mimeType": "image/jpeg",
      "name": "coral_fort_wall_01_diff_16k",
      "uri": "textures/coral_fort_wall_01_diff_1k.jpg"
    },
    {
      "mimeType": "image/jpeg",
      "name": "coral_fort_wall_01_arm_16k",
      "uri": "textures/coral_fort_wall_01_arm_1k.jpg"
    }
  ],
  "accessors": [
    {
      "bufferView": 0,
      "componentType": 5126,
      "count": 53894,
      "max": [
        0.7045270204544067,
        0.7000706195831299,
        0.6932515501976013
      ],
      "min": [
        -0.7045267820358276,
        -0.7022914886474609,
        -0.693234920501709
      ],
      "type": "VEC3"
    },
    {
      "bufferView": 1,
      "componentType": 5126,
      "count": 53894,
      "type": "VEC3"
    },
    {
      "bufferView": 2,
      "componentType": 5126,
      "count": 53894,
      "type": "VEC2"
    },
    {
      "bufferView": 3,
      "componentType": 5123,
      "count": 322170,
      "type": "SCALAR"
    }
  ],
  "bufferViews": [
    {
      "buffer": 0,
      "byteLength": 646728,
      "byteOffset": 0
    },
    {
      "buffer": 0,
      "byteLength": 646728,
      "byteOffset": 646728
    },
    {
      "buffer": 0,
      "byteLength": 431152,
      "byteOffset": 1293456
    },
    {
      "buffer": 0,
      "byteLength": 644340,
      "byteOffset": 1724608
    }
  ],
  "samplers": [
    {
      "magFilter": 9729,
      "minFilter": 9987
    }
  ],
  "buffers": [
    {
      "byteLength": 2368948,
      "uri": "coral_fort_wall_01.bin"
    }
  ]
}