{
  "asset": {
    "generator": "Khronos glTF Blender I/O v3.2.43",
    "version": "2.0"
  },
  "scene": 0,
  "scenes": [
    {
      "name": "Scene",
      "nodes": [
        0
      ]
    }
  ],
  "nodes": [
    {
      "mesh": 0,
      "name": "sphere_gltf"
    }
  ],
  "materials": [
    {
      "doubleSided": true,
      "name": "painted_metal_shutter",
      "normalTexture": {
        "index": 0
      },
      "pbrMetallicRoughness": {
        "baseColorTexture": {
          "index": 1
        },
        "metallicFactor": 0,
        "metallicRoughnessTexture": {
          "index": 2
        }
      }
    }
  ],
  "meshes": [
    {
      "name": "Sphere.001",
      "primitives": [
        {
          "attributes": {
            "POSITION": 0,
            "NORMAL": 1,
            "TEXCOORD_0": 2
          },
          "indices": 3,
          "material": 0
        }
      ]
    }
  ],
  "textures": [
    {
      "sampler": 0,
      "source": 0
    },
    {
      "sampler": 0,
      "source": 1
    },
    {
      "sampler": 0,
      "source": 2
    }
  ],
  "images": [
    {
      "mimeType": "image/jpeg",
      "name": "painted_metal_shutter_nor_gl_8k",
      "uri": "textures/painted_metal_shutter_nor_gl_1k.jpg"
    },
    {
      "mimeType": "image/jpeg",
      "name": "painted_metal_shutter_diff_8k",
      "uri": "textures/painted_metal_shutter_diff_1k.jpg"
    },
    {
      "mimeType": "image/jpeg",
      "name": "painted_metal_shutter_rough_8k",
      "uri": "textures/painted_metal_shutter_rough_1k.jpg"
    }
  ],
  "accessors": [
    {
      "bufferView": 0,
      "componentType": 5126,
      "count": 54040,
      "max": [
        1.0028122663497925,
        1.0023787021636963,
        1.0027953386306763
      ],
      "min": [
        -1.0028126239776611,
        -1.0023764371871948,
        -1.0027965307235718
      ],
      "type": "VEC3"
    },
    {
      "bufferView": 1,
      "componentType": 5126,
      "count": 54040,
      "type": "VEC3"
    },
    {
      "bufferView": 2,
      "componentType": 5126,
      "count": 54040,
      "type": "VEC2"
    },
    {
      "bufferView": 3,
      "componentType": 5123,
      "count": 322170,
      "type": "SCALAR"
    }
  ],
  "bufferViews": [
    {
      "buffer": 0,
      "byteLength": 648480,
      "byteOffset": 0
    },
    {
      "buffer": 0,
      "byteLength": 648480,
      "byteOffset": 648480
    },
    {
      "buffer": 0,
      "byteLength": 432320,
      "byteOffset": 1296960
    },
    {
      "buffer": 0,
      "byteLength": 644340,
      "byteOffset": 1729280
    }
  ],
  "samplers": [
    {
      "magFilter": 9729,
      "minFilter": 9987
    }
  ],
  "buffers": [
    {
      "byteLength": 2373620,
      "uri": "painted_metal_shutter.bin"
    }
  ]
}